<svg width="88" height="88" viewBox="0 0 88 88" fill="none" xmlns="http://www.w3.org/2000/svg">
<path d="M44 0C19.7369 0 0 19.7388 0 44C0 68.2612 19.7369 88 44 88C68.2631 88 88 68.2612 88 44C88 19.7388 68.2631 0 44 0ZM44 84.3334C21.7601 84.3334 3.66661 66.2399 3.66661 44C3.66661 21.7601 21.7601 3.66661 44 3.66661C66.2399 3.66661 84.3334 21.7601 84.3334 44C84.3334 66.2399 66.2399 84.3334 44 84.3334Z" fill="#3E8A23"/>
<path d="M61.4919 42.4582L35.8253 25.9582C35.2631 25.5913 34.5362 25.5715 33.9561 25.8901C33.3652 26.2124 33 26.8284 33 27.4998V60.4998C33 61.1711 33.3652 61.7871 33.9561 62.1094C34.2282 62.258 34.5326 62.3331 34.8334 62.3331C35.1771 62.3331 35.5245 62.2364 35.8253 62.0413L61.4919 45.5413C62.0147 45.2048 62.3334 44.6228 62.3334 43.9998C62.3334 43.3767 62.0147 42.7949 61.4919 42.4582ZM36.6666 57.141V30.8585L57.1091 43.9998L36.6666 57.141Z" fill="#3E8A23"/>
</svg>
